<?xml version="1.0" standalone="no"?>
<!DOCTYPE svg PUBLIC "-//W3C//DTD SVG 1.1//EN" "http://www.w3.org/Graphics/SVG/1.1/DTD/svg11.dtd">
<svg xmlns="http://www.w3.org/2000/svg">
<metadata>Copyright (C) 2023 by original authors @ fontello.com</metadata>
<defs>
<font id="evil-icons" horiz-adv-x="1000" >
<font-face font-family="evil-icons" font-weight="400" font-stretch="normal" units-per-em="1000" ascent="850" descent="-150" />
<missing-glyph horiz-adv-x="1000" />
<glyph glyph-name="archive" unicode="&#xe800;" d="M946 508h-52v131c0 16-11 26-26 26h-736c-15 0-26-10-26-26v-131h-52v131c0 45 34 79 78 79h736c44 0 78-34 78-79v-131z m-131-526h-630c-45 0-79 35-79 79v447h53v-447c0-16 10-26 26-26h630c16 0 26 10 26 26v447h53v-447c0-44-34-79-79-79z m-210 368h-210c-16 0-26 11-26 26s10 27 26 27h210c16 0 26-11 26-27s-10-26-26-26z m-551 210h892v-52h-892z" horiz-adv-x="1000" />

<glyph glyph-name="arrow-down" unicode="&#xe801;" d="M455 802c-186-17-344-150-394-331-12-45-15-70-15-121 0-52 3-77 15-122 22-77 60-142 118-200 69-69 152-112 251-128 34-6 106-6 140 0 99 16 182 59 251 128 70 70 112 153 129 252 6 34 6 106 0 140-5 29-17 72-26 95-76 191-265 307-469 287m92-54c170-20 307-143 345-311 23-102 3-216-54-305-101-155-291-222-467-163-128 43-228 152-261 284-22 93-11 192 31 276 20 39 40 68 70 99 86 90 211 135 336 120m-74-353l0-196-98 98-98 98-19-18-18-18 130-130 130-130 130 130 130 130-19 18-18 18-98-98-98-98 0 196 0 196-27 0-27 0 0-196" horiz-adv-x="1000" />

<glyph glyph-name="arrow-left" unicode="&#xe802;" d="M455 802c-186-17-344-150-394-331-12-45-15-70-15-121 0-52 3-77 15-122 22-77 60-142 118-200 69-69 152-112 251-128 34-6 106-6 140 0 99 16 182 59 251 128 70 70 112 153 129 252 6 34 6 106 0 140-5 29-17 72-26 95-76 191-265 307-469 287m92-54c170-20 307-143 345-311 23-102 3-216-54-305-101-155-291-222-467-163-128 43-228 152-261 284-22 93-11 192 31 276 20 39 40 68 70 99 86 90 211 135 336 120m-169-269l-129-129 129-130 130-129 18 18 19 19-98 97-98 98 196 0 196 0 0 27 0 26-196 0-196 0 98 99 99 98-18 18c-10 9-18 18-19 18-1 0-59-59-131-130" horiz-adv-x="1000" />

<glyph glyph-name="arrow-right" unicode="&#xe803;" d="M455 802c-186-17-344-150-394-331-12-45-15-70-15-121 0-52 3-77 15-122 22-77 60-142 118-200 69-69 152-112 251-128 34-6 106-6 140 0 99 16 182 59 251 128 70 70 112 153 129 252 6 34 6 106 0 140-5 29-17 72-26 95-76 191-265 307-469 287m92-54c170-20 307-143 345-311 23-102 3-216-54-305-101-155-291-222-467-163-128 43-228 152-261 284-22 93-11 192 31 276 20 39 40 68 70 99 86 90 211 135 336 120m-75-157l-18-18 98-98 99-99-196 0-196 0 0-26 0-27 196 0 196 0-98-98-98-97 19-19 18-18 130 129 129 130-129 129c-72 71-130 130-131 130-1 0-9-9-19-18" horiz-adv-x="1000" />

<glyph glyph-name="arrow-up" unicode="&#xe804;" d="M455 802c-186-17-344-150-394-331-12-45-15-70-15-121 0-52 3-77 15-122 22-77 60-142 118-200 69-69 152-112 251-128 34-6 106-6 140 0 99 16 182 59 251 128 70 70 112 153 129 252 6 34 6 106 0 140-5 29-17 72-26 95-76 191-265 307-469 287m92-54c170-20 307-143 345-311 23-102 3-216-54-305-101-155-291-222-467-163-128 43-228 152-261 284-22 93-11 192 31 276 20 39 40 68 70 99 86 90 211 135 336 120m-177-277l-129-129 19-19 18-18 98 98 97 97 0-195 0-196 27 0 27 0 0 196 0 195 97-97 98-98 18 18 19 19-129 129c-71 71-129 129-130 129-1 0-59-58-130-129" horiz-adv-x="1000" />

<glyph glyph-name="bell" unicode="&#xe805;" d="M487 776c-23-8-40-29-40-50 0-5-2-6-13-8-99-21-159-87-193-210-9-32-19-80-29-153-6-38-14-84-17-102-18-90-43-136-86-157-15-8-39-14-54-14l-9 0 0-26 0-27 161 0 161 0 4-12c14-45 43-73 89-90 9-3 18-4 39-4 25 0 30 1 45 6 40 16 67 42 81 83l6 17 161 0 162 0 0 27 0 26-10 0c-15 0-39 6-54 14-43 21-68 67-86 157-3 18-10 61-15 95-11 72-18 112-27 147-33 131-95 201-197 223-11 2-12 3-12 8 0 17-14 37-30 45-10 5-29 7-37 5m68-111c63-13 109-53 137-121 17-41 27-86 43-196 6-38 12-79 15-92 14-74 33-123 59-158l12-16-321 0-321 0 9 12c37 47 55 106 77 254 16 110 26 154 43 196 29 70 78 112 143 122 9 1 19 3 22 3 11 2 66-1 82-4m18-642c-3-9-14-24-23-31-16-12-27-16-50-16-23 0-34 4-50 16-8 6-26 30-26 35 0 1 34 2 76 2l76 0-3-6" horiz-adv-x="1000" />

<glyph glyph-name="calendar" unicode="&#xe806;" d="M241 801c-13-8-14-12-14-87 0-76 1-80 15-87 15-8 35-3 42 11 5 11 5 141 0 152-7 14-28 19-43 11m486 0c-14-8-14-12-14-87 0-57 0-70 3-76 8-14 27-19 42-11 14 7 15 11 15 87 0 56 0 70-4 76-7 14-27 19-42 11m-627-61c-22-7-36-22-48-48l-6-12 0-360 0-359 7-14c8-19 26-36 44-45l15-7 388 0 388 0 15 7c18 9 36 26 44 45l7 14 0 359 0 360-8 16c-9 19-21 33-37 41-9 5-16 6-43 7l-32 1 0-31 0-31 23 0c13 0 25-1 27-2 8-5 11-20 11-70l0-49-395 0-395 0 0 49c0 50 3 65 11 70 2 1 14 2 27 2l23 0 0 31 0 30-28 0c-18 0-33-1-38-4m248-26l0-31 152 0 152 0 0 31 0 30-152 0-152 0 0-30m547-473c0-220-1-262-4-270-7-17 22-16-391-16-328 0-373 0-379 4-16 8-16-7-16 280l0 262 395 0 395 0 0-260m-607 169l0-30 30 0 30 0 0 30 0 31-30 0-30 0 0-31m121 0l0-30 30 0 31 0 0 30 0 31-31 0-30 0 0-31m121 0l0-30 31 0 30 0 0 30 0 31-30 0-31 0 0-31m122 0l0-30 30 0 31 0 0 30 0 31-31 0-30 0 0-31m121 0l0-30 31 0 30 0 0 30 0 31-30 0-31 0 0-31m-607-121l0-31 31 0 30 0 0 31 0 30-30 0-31 0 0-30m122 0l0-31 30 0 30 0 0 31 0 30-30 0-30 0 0-30m121 0l0-31 30 0 31 0 0 31 0 30-31 0-30 0 0-30m121 0l0-31 31 0 30 0 0 31 0 30-30 0-31 0 0-30m122 0l0-31 30 0 31 0 0 31 0 30-31 0-30 0 0-30m121 0l0-31 31 0 30 0 0 31 0 30-30 0-31 0 0-30m-607-122l0-30 31 0 30 0 0 30 0 31-30 0-31 0 0-31m122 0l0-30 30 0 30 0 0 30 0 31-30 0-30 0 0-31m121 0l0-30 30 0 31 0 0 30 0 31-31 0-30 0 0-31m121 0l0-30 31 0 30 0 0 30 0 31-30 0-31 0 0-31m122 0l0-30 30 0 31 0 0 30 0 31-31 0-30 0 0-31m121 0l0-30 31 0 30 0 0 30 0 31-30 0-31 0 0-31m-607-121l0-30 31 0 30 0 0 30 0 30-30 0-31 0 0-30m122 0l0-30 30 0 30 0 0 30 0 30-30 0-30 0 0-30m121 0l0-30 30 0 31 0 0 30 0 30-31 0-30 0 0-30m121 0l0-30 31 0 30 0 0 30 0 30-30 0-31 0 0-30m122 0l0-30 30 0 31 0 0 30 0 30-31 0-30 0 0-30" horiz-adv-x="1000" />

<glyph glyph-name="camera" unicode="&#xe807;" d="M377 721c-13-4-29-13-37-22-3-4-13-22-22-40-13-26-18-34-23-37-6-3-20-3-93-3-70 0-88-1-98-4-25-6-43-21-54-44l-4-11 0-263 0-262 5-13c8-16 24-32 40-39l13-6 396 0 397 0 12 6c16 7 32 23 40 39l6 13 0 262 0 263-5 11c-11 23-29 38-53 44-11 3-29 4-101 4-76 0-88 0-92 3-3 2-13 19-22 37-9 18-20 37-24 41-3 5-13 11-21 16l-15 7-117 0c-89 1-120 0-128-2m-225-62l0-13 53 0 54 0 0 13 0 14-54 0-53 0 0-14m464 10c2-2 12-19 22-37 19-38 29-50 47-59l13-7 94-1c101-1 100-1 107-13 5-10 5-496 0-508-7-16 25-15-399-15-337 0-383 1-389 4-14 7-13-8-13 264 0 269-1 257 12 264 3 2 28 3 99 4l93 1 14 8c8 4 17 11 21 16 3 4 14 23 23 42 13 25 19 35 23 37 10 5 225 5 233 0m-150-106c-36-5-81-23-109-45-22-16-51-47-63-68-24-40-34-78-34-126 0-48 10-86 34-126 15-25 55-65 80-80 40-24 78-34 126-34 48 0 86 10 126 34 25 15 65 55 80 80 24 40 34 78 34 126 0 37-3 55-15 87-13 33-26 54-55 83-36 35-67 53-114 65-22 5-67 7-90 4m292-26c-10-5-16-14-16-25 0-10 1-12 8-19 6-6 9-7 18-7 10 0 12 1 18 7 7 7 8 9 8 19 0 9-1 12-7 18-8 7-21 10-29 7m-206-33c63-18 109-64 128-128 5-17 6-23 6-52 0-29-1-35-6-52-3-11-8-25-12-31-48-96-165-133-259-81-44 24-74 62-89 112-5 17-6 23-6 52 0 29 1 35 6 52 22 72 78 122 152 134 20 3 58 0 80-6m-81-49c-33-7-66-30-83-57-13-21-22-48-22-68 0-6 0-6 13-6l13 0 2 16c8 46 44 83 90 90l16 2 0 13 0 13-7 0c-4 0-14-2-22-3" horiz-adv-x="1000" />

<glyph glyph-name="cart" unicode="&#xe808;" d="M46 751l0-27 81 0 81 0 1-9c1-5 13-113 26-240l24-230-21-54-22-55-9 0c-49 0-92-34-105-81-19-76 53-149 129-130 30 8 56 29 69 55 17 33 17 60 1 99-2 3 10 4 226 4 216 0 227-1 226-4-8-19-11-29-12-42-5-72 63-129 132-111 57 14 93 73 78 129-9 35-33 61-71 76-8 4-37 4-308 5l-299 1 16 41c10 25 17 41 19 42 2 0 144 30 316 66 171 35 314 66 318 68 13 6 13 3 13 156 0 155 0 150-14 157-5 3-46 4-339 4-184 0-334 0-334 1 0 13-10 86-12 91-2 3-7 8-11 10-6 5-11 5-103 5l-96 0 0-27m855-243l0-110-290-60c-160-33-293-60-296-60l-5 0-18 162c-9 90-17 166-17 170l0 7 313 0 313 0 0-109m-671-432c18-9 28-26 28-47 0-45-51-70-86-41-13 12-18 24-18 41 0 25 14 44 39 52 8 3 27 0 37-5m641 0c19-9 29-26 29-47 0-45-52-70-86-41-13 12-19 24-19 41 0 25 14 44 39 52 9 3 28 0 37-5" horiz-adv-x="1000" />

<glyph glyph-name="chart" unicode="&#xe809;" d="M671 378l0-340-29 0-28 0 0 255 0 256-114 0-114 0 0-256 0-255-28 0-28 0 0 170 0 170-114 0-114 0 0-170 0-170-28 0-28 0 0-29 0-28 454 0 455 0 0 28 0 29-29 0-28 0 0 340 0 341-114 0-113 0 0-341m170-28l0-312-57 0-57 0 0 312 0 313 57 0 57 0 0-313m-284-85l0-227-57 0-57 0 0 227 0 227 57 0 57 0 0-227m-284-85l0-142-57 0-57 0 0 142 0 142 57 0 57 0 0-142" horiz-adv-x="1000" />

<glyph glyph-name="check" unicode="&#xe80a;" d="M455 802c-186-17-344-150-394-331-12-45-15-70-15-121 0-52 3-77 15-122 22-77 60-142 118-200 69-69 152-112 251-128 34-6 106-6 140 0 99 16 182 59 251 128 70 70 112 153 129 252 6 34 6 106 0 140-5 29-17 72-26 95-76 191-265 307-469 287m92-54c170-20 307-143 345-311 23-102 3-216-54-305-101-155-291-222-467-163-128 43-228 152-261 284-22 93-11 192 31 276 20 39 40 68 70 99 86 90 211 135 336 120m51-371l-152-151-98 98-98 98-18-18-19-19 117-116 116-117 171 170 170 170-18 18c-10 10-18 18-19 18-1 0-69-68-152-151" horiz-adv-x="1000" />

<glyph glyph-name="chevron-down" unicode="&#xe80b;" d="M77 576l-31-31 227-227 227-227 227 227 228 227-33 32-32 33-195-196-195-195-194 195c-107 106-195 194-196 194-1 0-16-14-33-32" horiz-adv-x="1000" />

<glyph glyph-name="chevron-left" unicode="&#xe80c;" d="M467 577l-227-227 227-227 227-228 32 33 33 32-195 195-195 195 196 196 196 196-32 31c-17 17-32 32-33 32-1 0-104-103-229-228" horiz-adv-x="1000" />

<glyph glyph-name="chevron-right" unicode="&#xe80d;" d="M271 773l-31-31 195-196 196-196-195-195-195-195 33-32 32-33 227 228 228 227-228 227c-125 125-228 228-229 228-1 0-16-15-33-32" horiz-adv-x="1000" />

<glyph glyph-name="chevron-up" unicode="&#xe80e;" d="M272 382l-226-226 32-32 32-33 195 195 195 195 195-195 195-195 32 33 33 32-227 226c-124 125-227 227-228 227-1 0-104-102-228-227" horiz-adv-x="1000" />

<glyph glyph-name="clock" unicode="&#xe80f;" d="M455 802c-186-17-344-150-394-331-12-45-15-70-15-121 0-52 3-77 15-122 22-77 60-142 118-200 69-69 152-112 251-128 34-6 106-6 140 0 99 16 182 59 251 128 70 70 112 153 129 252 6 34 6 106 0 140-5 29-17 72-26 95-76 191-265 307-469 287m92-54c170-20 307-143 345-311 23-102 3-216-54-305-101-155-291-222-467-163-128 43-228 152-261 284-22 93-11 192 31 276 20 39 40 68 70 99 86 90 211 135 336 120m-74-310l0-152 84-84 85-84 18 18 18 19-75 75-76 76 0 142 0 143-27 0-27 0 0-153" horiz-adv-x="1000" />

<glyph glyph-name="close-o" unicode="&#xe810;" d="M455 802c-186-17-344-150-394-331-12-45-15-70-15-121 0-52 3-77 15-122 22-77 60-142 118-200 69-69 152-112 251-128 34-6 106-6 140 0 99 16 182 59 251 128 70 70 112 153 129 252 6 34 6 106 0 140-5 29-17 72-26 95-76 191-265 307-469 287m92-54c170-20 307-143 345-311 23-102 3-216-54-305-101-155-291-222-467-163-128 43-228 152-261 284-22 93-11 192 31 276 20 39 40 68 70 99 86 90 211 135 336 120m-261-185l-18-18 97-98 98-97-98-98-97-98 18-18 19-18 97 97 98 98 98-98 97-97 19 18 18 18-98 98-97 98 97 97 98 98-18 18-19 19-97-98-98-97-98 97-97 98-19-19" horiz-adv-x="1000" />

<glyph glyph-name="comment" unicode="&#xe811;" d="M443 776c-130-11-228-50-298-121-56-56-85-116-96-198-16-125 24-242 110-317 22-20 52-40 77-53 20-10 19-8 11-40-10-40-22-64-52-103l-16-22 51 1c53 2 74 4 108 14 47 14 91 39 125 73l19 19 43 1c231 8 383 110 420 285 21 95 6 201-37 274-55 92-150 153-276 177-50 10-138 15-189 10m143-57c118-15 204-59 258-131 55-74 72-184 43-285-27-91-97-161-194-194-57-19-101-26-179-27-55-1-60-2-63-6-26-38-73-72-119-88-17-5-50-13-52-11 0 0 2 7 5 15 3 8 8 24 11 35 7 24 15 81 13 83-1 1-12 6-25 11-98 41-161 118-180 220-5 30-5 96 0 125 15 81 56 144 122 188 58 39 127 61 217 69 32 3 111 1 143-4" horiz-adv-x="1000" />

<glyph glyph-name="close" unicode="&#xe812;" d="M68 781l-22-22 204-205 204-204-204-204-204-205 22-23 23-23 205 205 204 204 205-204 204-205 23 23 23 23-205 205-204 204 204 205 205 204-23 23-23 23-204-205-205-204-204 203c-112 113-204 204-205 204-1 0-11-10-23-22" horiz-adv-x="1000" />

<glyph glyph-name="envelope" unicode="&#xe813;" d="M103 694c-24-6-42-21-53-44l-4-11 0-289 0-290 5-12c8-17 24-32 40-40l13-6 396 0 397 0 12 6c16 8 32 23 40 40l6 12 0 290 0 289-5 11c-7 15-17 26-29 34-23 15 2 14-422 14-331 0-386-1-396-4m787-54c4-2 8-7 9-10 1-6-11-19-162-170-91-90-169-168-176-172-23-16-56-23-83-16-33 8-26 3-209 185-185 184-175 173-159 183 7 4 16 4 390 4 377 0 383 0 390-4m-589-288c0-1-45-47-101-103l-102-102 0 203 0 204 101-101c56-55 101-101 102-101m601-2l0-200-100 100-101 101 100 100c55 55 100 100 101 100 0 0 0-91 0-201m-477-113c28-14 46-18 76-18 24 0 29 1 48 7 31 11 44 20 81 56l32 32 119-120c110-109 119-119 118-125-1-3-5-7-9-10-7-4-13-4-390-4-374 0-383 0-390 4-16 10-21 3 110 134l120 121 35-34c27-27 38-36 50-43" horiz-adv-x="1000" />

<glyph glyph-name="exclamation" unicode="&#xe814;" d="M455 802c-186-17-344-150-394-331-12-45-15-70-15-121 0-52 3-77 15-122 22-77 60-142 118-200 69-69 152-112 251-128 34-6 106-6 140 0 99 16 182 59 251 128 70 70 112 153 129 252 6 34 6 106 0 140-5 29-17 72-26 95-76 191-265 307-469 287m92-54c170-20 307-143 345-311 23-102 3-216-54-305-101-155-291-222-467-163-128 43-228 152-261 284-22 93-11 192 31 276 20 39 40 68 70 99 86 90 211 135 336 120m-74-239c0-72 7-253 10-284l2-9 15 0 15 0 1 9c4 31 11 212 11 284l0 82-27 0-27 0 0-82m0-373l0-27 27 0 27 0 0 27 0 26-27 0-27 0 0-26" horiz-adv-x="1000" />

<glyph glyph-name="external-link" unicode="&#xe815;" d="M629 772l0-32 108 0 108 0-216-217-216-216 22-22 22-22 216 216 217 216 0-108 0-108 32 0 33 0 0 163 0 163-163 0-163 0 0-33m-514-37c-29-7-51-26-63-54l-6-13 0-351 0-351 7-16c9-19 28-38 48-47l15-8 351 0 351 0 15 8c20 9 39 28 48 47l7 16 1 192 1 191-33 0-32 0 0-181c0-151-1-184-4-191-8-19 16-18-354-18-293 0-335 1-342 4-17 9-16-13-16 354 0 366-1 345 16 353 7 4 33 5 191 5l183 0 0 32 0 33-185-1c-153 0-187 0-199-4" horiz-adv-x="1000" />

<glyph glyph-name="credit-card" unicode="&#xe816;" d="M103 694c-24-6-42-21-53-44l-4-11 0-289 0-290 5-12c8-17 24-32 40-40l13-6 396 0 397 0 12 6c16 8 32 23 40 40l6 12 0 290 0 289-5 11c-7 15-17 26-29 34-23 15 2 14-422 14-331 0-386-1-396-4m786-53c10-5 13-14 13-33l0-17-402 0-402 0 0 17c0 10 1 19 3 23 8 14-21 13 399 13 337 0 383 0 389-3m13-388c0-193 0-188-13-195-6-3-46-3-389-3-337 0-383 0-389 3-14 7-13-1-13 194l0 178 402 0 402 0 0-177m-750 43l0-27 13 0 13 0 0 27 0 27-13 0-13 0 0-27m53 0l0-27 14 0 13 0 0 27 0 27-13 0-14 0 0-27m54 0l0-27 13 0 14 0 0 27 0 27-14 0-13 0 0-27m80 0l0-27 14 0 13 0 0 27 0 27-13 0-14 0 0-27m54 0l0-27 13 0 14 0 0 27 0 27-14 0-13 0 0-27m53 0l0-27 14 0 13 0 0 27 0 27-13 0-14 0 0-27m81 0l0-27 13 0 14 0 0 27 0 27-14 0-13 0 0-27m53 0l0-27 14 0 13 0 0 27 0 27-13 0-14 0 0-27m54 0l0-27 13 0 14 0 0 27 0 27-14 0-13 0 0-27m80 0l0-27 14 0 13 0 0 27 0 27-13 0-14 0 0-27m54 0l0-27 13 0 14 0 0 27 0 27-14 0-13 0 0-27m54 0l0-27 13 0 14 0 0 27 0 27-14 0-13 0 0-27" horiz-adv-x="1000" />

<glyph glyph-name="eye" unicode="&#xe817;" d="M452 642c-158-15-303-110-393-258-18-29-18-36-1-65 61-102 159-189 261-229 143-56 304-43 434 36 73 45 141 114 188 190 18 30 18 36-1 68-44 74-111 142-184 188-88 55-197 80-304 70m-11-58c-46-12-76-29-111-64-28-29-42-50-55-83-12-32-15-50-15-87 0-48 10-85 34-125 15-26 55-66 80-81 20-12 51-24 73-29l14-4-15 2c-20 1-61 11-87 20-80 27-156 82-214 155-21 25-42 57-42 63 0 5 31 48 53 74 33 37 63 65 102 91 54 37 113 60 174 70 28 4 31 3 9-2m147-2c112-22 221-98 294-205 8-13 15-25 15-27 0-5-31-49-53-75-71-82-161-137-256-157-12-2-28-5-36-5l-13-2 14 4c22 5 53 17 73 29 25 15 65 55 80 81 24 40 34 77 34 125 0 37-3 55-15 87-13 33-26 54-55 83-35 35-64 51-111 64-19 5-20 5-7 4 8-1 24-4 36-6m-36-52c63-18 109-64 128-128 5-17 6-23 6-52 0-28-1-34-6-52-3-11-9-25-12-31-48-96-165-132-259-81-43 24-74 62-89 112-5 18-6 24-6 52 0 29 1 35 6 52 22 72 78 122 152 134 20 3 58 0 80-6m-66-49c-7-4-13-14-13-24 0-15 12-26 28-26 13 0 33-7 45-15 20-13 34-41 34-66 0-22-12-49-29-62-16-13-28-17-51-17-23 0-35 4-51 17-17 13-29 39-29 62 0 28-38 38-51 13-3-5-3-11-2-24 3-46 31-88 72-108 23-11 32-13 61-13 25 0 30 0 45 6 40 15 67 42 81 82 23 62-5 133-65 163-28 14-62 19-75 12" horiz-adv-x="1000" />

<glyph glyph-name="gear" unicode="&#xe818;" d="M417 749l-19-56-18-7c-10-3-25-10-35-14l-16-8-53 26-52 26-46-46-46-45 27-53 26-52-9-18c-4-9-10-25-14-34l-5-17-55-18-56-18 0-65 0-65 56-19 57-19 6-19c4-10 10-26 15-34l7-16-26-53-26-52 46-46 45-46 53 27 52 26 18-9c9-4 25-10 34-14l17-5 18-55 18-56 65 0 65 0 16 52c8 28 16 54 18 57 2 6 4 7 21 13 10 4 26 10 34 14l16 8 52-26 53-27 45 45c25 25 45 46 45 47 0 2-11 26-25 54l-26 50 7 15c4 8 10 23 14 34l7 20 55 18 55 19 0 64 1 65-55 18-55 18-7 19c-4 10-10 26-15 35l-7 15 26 53 26 52-46 46-45 45-51-26c-28-13-52-25-53-25-2 0-11 4-20 8-10 5-25 11-34 14l-16 5-18 55-18 56-65 0-65 0-19-56m132-44c14-42 17-52 20-52 9 0 51-16 76-28l27-14 48 24 48 24 21-21 21-21-24-48-24-48 14-27c12-25 28-67 28-76 0-3 10-6 52-20l52-17 0-31 0-31-52-17-51-16-4-16c-4-19-18-53-30-74l-9-16 23-48 24-47-22-22-21-22-48 24-47 24-23-12c-27-14-47-22-67-27l-16-4-16-51-17-52-31 0-31 0-17 52-16 51-16 4c-20 5-40 13-67 27l-23 12-47-24-48-24-21 22-22 22 23 47 24 47-15 30c-14 30-24 54-26 69l-1 7-52 17-52 17 0 31 0 31 52 17 51 16 4 16c4 19 18 53 30 74l9 16-24 48-24 49 21 21 21 21 48-24 48-24 30 15c29 15 54 24 69 26l7 1 17 52 17 52 31 0 31 0 17-52m-78-142c-33-4-72-20-98-39-19-15-45-43-56-62-21-35-30-69-30-112 0-43 9-77 30-112 13-23 49-59 72-72 35-21 69-30 112-30 43 0 77 9 112 30 23 13 59 49 72 72 21 35 30 69 30 112 0 33-3 49-13 78-11 29-24 48-49 74-32 31-60 47-102 57-20 5-60 7-80 4m76-52c57-17 97-57 115-114 5-16 5-21 5-47 0-26 0-31-5-46-3-10-8-23-11-28-43-86-147-118-232-72-38 21-65 55-79 100-4 15-5 20-5 46 0 26 1 31 5 47 20 64 70 108 136 119 18 3 52 0 71-5" horiz-adv-x="1000" />

<glyph glyph-name="heart" unicode="&#xe819;" d="M252 745c-36-4-81-23-110-44-21-16-50-48-63-69-12-21-24-51-30-76-5-24-5-83 1-110 11-55 34-101 79-158 23-29 101-107 147-148 54-48 221-187 224-187 3 0 170 139 224 187 46 41 124 119 147 148 45 57 68 103 79 158 6 27 6 86 1 110-6 25-18 55-30 76-15 26-56 66-81 80-59 35-127 44-194 27-41-11-81-35-120-74l-26-26-26 26c-49 48-96 73-155 80-20 3-46 3-67 0m86-58c21-5 47-18 68-32 17-13 53-48 76-76 9-12 17-21 18-21 1 0 9 9 18 21 40 48 81 83 115 98 27 12 46 16 81 16 29 0 35-1 52-6 93-28 146-111 134-212-5-43-19-78-47-120-48-73-133-153-336-319l-17-15-17 14c-294 241-370 328-383 440-13 110 53 200 157 217 19 3 61 1 81-5" horiz-adv-x="1000" />

<glyph glyph-name="image" unicode="&#xe81a;" d="M103 694c-24-6-42-21-53-44l-4-11 0-289 0-290 5-12c8-17 24-32 40-40l13-6 396 0 397 0 12 6c16 8 32 23 40 40l6 12 0 290 0 289-5 11c-7 15-17 26-29 34-23 15 2 14-422 14-331 0-386-1-396-4m786-53c14-7 13 3 13-218l-1-201-66 54c-36 29-67 53-68 53-2-1-32-25-68-54-35-28-65-53-66-53-2-2-58 50-147 134-80 75-146 136-147 136-1 0-55-50-121-111l-119-111 0 176c-1 132 0 179 2 184 1 3 5 8 9 10 7 4 19 4 390 4 337 0 383 0 389-3m-277-53c-38-7-72-40-82-79-20-76 53-149 130-129 57 15 92 73 78 129-15 56-70 90-126 79m46-57c18-10 28-26 28-47 0-46-51-71-86-41-13 11-18 23-18 41 0 25 14 43 39 51 8 3 27 1 37-4m-124-294l192-181-304-1c-334 0-313-1-321 13-2 5-3 17-3 68l0 61 120 111c66 61 121 110 122 110 0 0 88-82 194-181m302-32l66-53 0-38c0-59 0-59-58-59l-39 0-67 63-66 62 5 5c11 12 90 75 92 75 1-1 31-25 67-55" horiz-adv-x="1000" />

<glyph glyph-name="like" unicode="&#xe81b;" d="M551 774c-21-5-41-16-46-24-2-4-10-40-18-85-16-87-19-94-44-133-23-35-69-85-107-117l-12-10-8 10c-4 5-12 11-17 14-10 6-11 6-111 6-100 0-101 0-111-6-12-6-25-21-29-33-4-14-3-419 1-433 3-13 23-33 36-36 14-4 192-4 206 0 13 4 32 23 37 37l3 12 41-19c22-10 48-22 58-25l17-7 152-1c111 0 155 0 165 2 29 7 57 27 70 53 6 10 7 15 7 32l0 19 9 5c13 5 35 28 42 42 7 16 9 39 4 60l-4 17 13 12c28 25 35 56 19 88l-7 16 11 12c7 7 15 19 19 28 7 14 8 18 8 37 0 18-1 23-7 34-11 23-29 39-59 48-14 5-19 5-126 6l-111 1 2 6c13 53 19 105 17 161-3 94-21 146-56 166-9 5-14 7-30 7-11 1-26 0-34-2m44-66c12-25 18-64 18-124 0-47-4-76-16-126-5-21-5-21-13-22-12-2-19-6-23-14-7-14-2-32 9-39 4-2 38-3 149-4l143-1 12-6c16-8 23-19 22-32-3-14-8-22-25-36-21-16-22-20-9-40 12-18 13-21 13-35 0-16-5-24-25-36-8-4-16-10-18-13-6-7-6-19 2-35 3-8 7-20 7-27 2-21-3-28-31-41-12-6-23-12-25-15-3-4-4-11-1-37 2-19 2-20-5-27-12-15-14-15-171-15-120 0-144 1-156 4-8 2-32 12-53 22-22 10-46 21-54 24l-15 5 0 149 0 149 29 23c59 47 113 106 141 154 20 34 24 46 34 104 19 108 17 99 24 101 3 1 11 2 19 1 13 0 13 0 18-11m-322-528l0-199-85 0-85 0 0 199 0 199 85 0 85 0 0-199" horiz-adv-x="1000" />

<glyph glyph-name="location" unicode="&#xe81c;" d="M472 804c-45-6-62-10-91-22-104-40-180-133-200-244-6-31-5-84 1-113 23-108 102-255 224-416 29-38 63-80 81-100l13-14 12 12c21 20 82 99 129 165 80 114 134 215 163 301 16 48 19 67 19 111 0 31-1 41-4 59-29 135-129 233-264 257-16 3-71 6-83 4m84-55c54-11 98-35 138-75 49-49 75-107 80-178 3-55-15-119-60-207-27-52-48-87-86-144-38-57-93-131-123-166l-5-7-5 7c-3 3-16 19-29 36-75 97-139 194-181 277-43 85-62 149-59 203 5 71 31 130 81 179 46 47 98 71 166 80 17 2 62-1 83-5m-83-147c-19-4-44-17-58-30-63-60-48-164 28-202 22-11 30-13 57-13 24 0 28 1 42 6 48 18 79 59 82 109 6 83-69 148-151 130m47-49c26-7 45-27 52-52 4-16 4-24 0-40-6-23-20-39-42-49-8-4-14-5-30-5-22 0-32 4-48 16-15 12-27 37-27 59 0 22 14 48 32 60 19 13 41 16 63 11" horiz-adv-x="1000" />

<glyph glyph-name="minus" unicode="&#xe81d;" d="M455 802c-186-17-344-150-394-331-12-45-15-70-15-121 0-52 3-77 15-122 22-77 60-142 118-200 69-69 152-112 251-128 34-6 106-6 140 0 99 16 182 59 251 128 70 70 112 153 129 252 6 34 6 106 0 140-5 29-17 72-26 95-76 191-265 307-469 287m92-54c170-20 307-143 345-311 23-102 3-216-54-305-101-155-291-222-467-163-128 43-228 152-261 284-22 93-11 192 31 276 20 39 40 68 70 99 86 90 211 135 336 120m-288-398l0-27 241 0 241 0 0 27 0 26-241 0-241 0 0-26" horiz-adv-x="1000" />

<glyph glyph-name="link" unicode="&#xe81e;" d="M718 803c-24-3-38-6-58-15-29-12-45-25-93-72-60-59-75-81-88-128-7-28-8-81-1-105 3-9 5-17 6-17 1-1 12 9 24 20l21 22 0 28c1 36 6 55 24 82 16 23 87 94 110 109 58 37 140 28 191-23 52-52 60-134 20-194-7-12-29-35-56-62-38-37-47-45-64-53-26-13-45-17-73-17l-24 1-21-21c-12-12-21-22-20-23 0-1 8-4 17-7 23-7 77-6 105 1 46 13 68 28 126 87 58 58 72 78 84 124 9 31 8 81-1 111-12 39-28 67-57 94-20 20-36 30-57 40-33 16-78 23-115 18m-79-275c-5-2-79-75-165-161l-156-157 0-13c0-11 1-14 8-21 7-7 10-8 21-8l13 0 160 161c150 150 161 161 162 170 2 12-3 21-14 29-10 7-19 7-29 0m-349-153c-34-4-63-14-90-32-21-13-105-97-119-118-26-39-35-70-35-119 0-30 1-38 7-57 11-38 25-61 52-90 27-28 55-44 94-56 30-9 80-10 111-2 46 13 69 28 127 87 57 58 71 78 84 124 7 28 8 81 1 105-3 9-6 17-7 17-1 1-11-9-23-20l-21-22-1-28c0-55-13-78-80-144-38-37-47-45-63-53-28-14-47-18-78-16-31 1-56 9-81 26-23 16-38 33-51 60-13 26-18 50-16 80 3 47 18 73 77 132 61 59 82 71 136 72l29 1 21 21c12 11 20 22 19 23-7 7-63 13-93 9" horiz-adv-x="1000" />

<glyph glyph-name="play" unicode="&#xe81f;" d="M455 802c-186-17-344-150-394-331-12-45-15-70-15-121 0-52 3-77 15-122 22-77 60-142 118-200 69-69 152-112 251-128 34-6 106-6 140 0 99 16 182 59 251 128 70 70 112 153 129 252 6 34 6 106 0 140-5 29-17 72-26 95-76 191-265 307-469 287m92-54c170-20 307-143 345-311 23-102 3-216-54-305-101-155-291-222-467-163-128 43-228 152-261 284-22 93-11 192 31 276 20 39 40 68 70 99 86 90 211 135 336 120m-181-398c0-128 0-232 1-232 2 0 397 230 398 231 0 1-375 220-397 232-1 1-2-103-2-231m174 72c65-38 118-69 118-70 0-1-231-138-236-140-2-1-2 62-2 139 0 76 0 139 1 139 0 0 54-30 119-68" horiz-adv-x="1000" />

<glyph glyph-name="lock" unicode="&#xe820;" d="M462 803c-42-6-92-26-124-51-25-18-58-54-72-78-13-22-27-56-33-83-3-13-5-35-6-86l-1-69-12-5c-16-8-32-25-40-43l-7-14 0-206 0-207 7-14c9-19 26-36 45-45l14-7 267 0 267 0 15 7c18 9 36 26 44 45l7 14 0 207 0 206-7 14c-8 18-24 35-40 43l-12 5-1 69c-2 75-3 86-18 126-14 38-30 61-63 94-40 40-76 60-129 73-25 6-76 9-101 5m97-67c72-21 123-72 145-145 7-21 7-26 8-86l1-64-213 0-213 0 1 64c1 60 2 65 8 86 25 82 89 138 172 151 23 4 66 1 91-6m199-360c16-8 15 0 15-207 0-157 0-190-3-198-7-17 8-16-270-16-275 0-261-1-270 15-5 11-5 384 0 395 9 16-6 15 270 15 219 0 252 0 258-4m-276-60c-14-3-34-22-39-36-8-26-3-48 18-67l14-13-9-55c-5-30-10-58-10-62l-2-7 46 0 46 0-1 7c-1 4-6 32-11 62l-9 55 14 13c29 27 29 65 1 90-17 15-35 20-58 13" horiz-adv-x="1000" />

<glyph glyph-name="pencil" unicode="&#xe821;" d="M668 755l-47-48 117-117c64-64 118-117 119-117 2 0 96 88 97 91 2 5-11 58-19 77-17 43-48 83-85 110-23 18-60 35-89 42-48 12-38 16-93-38m102-30c47-19 85-57 104-104 13-31 13-31-3-47l-15-14-74 73-73 74 14 15c17 16 16 16 47 3m-408-277l-238-237-38-154c-22-84-40-155-40-157-2-3 44 7 156 35l158 40 238 239 238 238-117 117c-64 64-117 117-118 117-1 0-108-107-239-238m265 125l26-25-192-192-191-191-15 10c-8 5-22 14-31 19-9 5-16 9-17 9-1 1 392 395 394 395 1 0 13-11 26-25m96-96l25-25-196-197c-109-109-198-197-199-197-1 0-4 4-6 10-3 5-11 19-18 30l-14 21 190 192c105 105 191 191 192 191 0 0 12-11 26-25m-505-353c28-19 56-51 72-84 6-11 7-15 4-15-2-1-31-8-64-16l-60-15-14 13-13 14 13 54c8 29 15 58 16 63l3 10 14-7c8-4 20-11 29-17" horiz-adv-x="1000" />

<glyph glyph-name="navicon" unicode="&#xe822;" d="M46 653l0-61 454 0 455 0 0 61 0 61-455 0-454 0 0-61m0-303l0-61 454 0 455 0 0 61 0 61-455 0-454 0 0-61m0-303l0-61 454 0 455 0 0 61 0 61-455 0-454 0 0-61" horiz-adv-x="1000" />

<glyph glyph-name="paperclip" unicode="&#xe823;" d="M688 763c-32-6-59-18-87-37-9-6-105-100-266-260-261-262-263-264-277-297-18-42-16-100 3-139 30-59 87-96 149-96 34 0 64 9 91 27 18 11 393 382 404 399 22 34 25 77 6 113-7 15-26 36-40 45-36 22-85 22-121 0-8-5-63-58-136-131l-124-123 20-20 20-20 39 38c22 22 77 76 123 122 61 61 86 83 93 87 37 17 78-10 79-50 0-10-2-17-5-24-3-5-80-83-196-199-206-206-198-199-230-206-17-3-47-1-62 5-27 11-53 34-64 58-7 14-8 19-9 39-1 25 1 38 11 58 5 11 41 48 253 261 137 137 254 253 261 259 72 55 178 45 234-23 14-17 30-51 35-71 4-21 4-57 0-77-4-18-14-40-25-57-4-7-91-95-192-196l-184-185 19-19 19-20 188 188c203 203 205 205 221 246 13 30 17 52 17 86 0 57-18 104-56 149-25 28-71 57-111 67-24 6-77 8-100 3" horiz-adv-x="1000" />

<glyph glyph-name="plus" unicode="&#xe824;" d="M455 802c-186-17-344-150-394-331-12-45-15-70-15-121 0-52 3-77 15-122 22-77 60-142 118-200 69-69 152-112 251-128 34-6 106-6 140 0 99 16 182 59 251 128 70 70 112 153 129 252 6 34 6 106 0 140-5 29-17 72-26 95-76 191-265 307-469 287m92-54c170-20 307-143 345-311 23-102 3-216-54-305-101-155-291-222-467-163-128 43-228 152-261 284-22 93-11 192 31 276 20 39 40 68 70 99 86 90 211 135 336 120m-74-264l0-108-107 0-107 0 0-26 0-27 107 0 107 0 0-107 0-107 27 0 27 0 0 107 0 107 107 0 107 0 0 27 0 26-107 0-107 0 0 108 0 107-27 0-27 0 0-107" horiz-adv-x="1000" />

<glyph glyph-name="pointer" unicode="&#xe825;" d="M386 802c-19-6-38-19-49-35-16-25-17-25-17-203l0-160-22 22c-44 44-82 55-121 38-32-13-47-50-38-91 6-22 26-70 53-122 44-87 80-145 127-204 44-55 56-78 59-111 2-22 6-31 16-36 11-6 383-6 394 0 10 5 15 16 15 32 0 44 8 95 31 190 26 105 31 144 29 245-1 64-1 69-6 81-13 27-33 43-62 51-15 4-29 4-49-1-7-1-9 0-9 2 0 14-27 44-49 55-20 9-52 10-68 2l-11-6-10 12c-7 8-17 16-28 21-14 7-19 8-34 8-10 0-22-1-26-2l-8-2-1 75-1 76-7 14c-14 31-41 49-75 51-12 1-24 0-33-2m38-61c16-8 15-5 15-163 0-158 0-155 15-163 15-8 35-2 42 11 3 6 4 17 4 46 0 42 2 50 15 57 15 8 35 2 42-11 3-6 3-18 3-61 0-59 2-65 16-72 15-8 34-3 41 11 3 6 4 16 4 46 0 42 2 50 15 56 15 8 35 3 42-11 3-6 4-18 4-60 0-43 1-55 4-61 7-14 26-19 41-11 12 6 15 15 15 41 0 26 4 36 15 42 16 8 35 2 42-11 3-6 4-19 4-67 0-89-3-114-27-212-18-78-28-126-31-162l-4-29-152 0-152 0-2 6c-5 22-7 29-16 47-6 10-16 26-24 35-55 65-75 93-114 160-44 78-82 160-86 186-2 15 1 20 12 20 13 0 25-7 45-27 22-22 40-47 56-78 9-18 10-23 10-37 0-10 2-20 4-24 7-14 26-20 42-12 15 9 15-4 15 254 0 257-1 246 14 254 9 5 22 5 31 0" horiz-adv-x="1000" />

<glyph glyph-name="question" unicode="&#xe826;" d="M455 802c-186-17-344-150-394-331-12-45-15-70-15-121 0-52 3-77 15-122 22-77 60-142 118-200 69-69 152-112 251-128 34-6 106-6 140 0 99 16 182 59 251 128 70 70 112 153 129 252 6 34 6 106 0 140-5 29-17 72-26 95-76 191-265 307-469 287m92-54c170-20 307-143 345-311 23-102 3-216-54-305-101-155-291-222-467-163-128 43-228 152-261 284-22 93-11 192 31 276 20 39 40 68 70 99 86 90 211 135 336 120m-64-162c-35-4-64-17-89-41-14-12-19-19-26-33-10-21-17-51-18-69l0-13 21 0 21 0 2 10c2 15 15 49 26 65 11 17 20 25 43 36 17 8 19 8 41 8 22 0 26 0 42-7 25-10 40-24 52-47 7-16 8-18 8-37 0-37-11-55-65-111-29-29-36-38-41-50-10-21-16-46-16-66l0-17 22 0 21 0 0 14c0 20 5 46 11 56 3 5 18 22 34 39 46 47 62 68 71 93 4 11 5 18 5 45 0 32 0 33-7 50-11 29-28 46-57 61-27 13-65 18-101 14m-10-450l0-27 27 0 27 0 0 27 0 26-27 0-27 0 0-26" horiz-adv-x="1000" />

<glyph glyph-name="redo" unicode="&#xe827;" d="M460 803c-63-9-87-14-128-30-145-57-252-187-281-343-7-41-7-120 0-161 35-187 181-333 368-368 43-8 126-7 167 2 124 26 223 93 292 196 15 23 35 60 33 62-1 1-15 7-31 14l-30 14-13-23c-67-127-206-206-351-201-101 4-187 42-258 113-56 56-89 116-105 194-10 42-10 113 0 156 16 77 49 138 105 193 56 56 116 89 193 106 40 8 111 9 149 1 106-21 195-85 247-179 7-12 12-22 12-23 0-1-35-1-77-1l-78 0 0-35 0-35 141 0 140 0 0 140 0 140-35 0-35 0 0-81 0-81-13 21c-62 104-167 178-288 202-29 6-102 10-124 7" horiz-adv-x="1000" />

<glyph glyph-name="refresh" unicode="&#xe828;" d="M465 720c-11-1-29-4-40-6-33-7-78-23-78-28 0-3 17-45 20-49 0-1 9 2 18 6 54 21 116 26 177 15 123-24 222-122 247-245 16-79 3-157-37-226l-12-20 0 78-1 77-29 0-29 0 0-115 0-115 115 0 116 0 0 29 0 28-58 0-57 0 15 30c25 50 39 99 41 154 8 165-96 317-253 369-31 10-53 15-88 18-29 3-38 3-67 0m-396-139l0-29 58 0 59 0-9-15c-20-35-37-79-45-120-6-31-6-99 0-132 25-135 121-246 249-289 45-14 70-18 121-18 51 0 75 4 118 19 40 14 37 10 24 40-6 14-12 25-14 24-1 0-12-4-25-8-38-14-58-17-104-17-45 0-64 3-103 15-46 16-84 40-121 77-46 46-73 95-87 159-6 32-7 91-1 122 8 39 24 80 43 110l9 13 0-76 0-76 29 0 29 0 0 115 0 115-115 0-115 0 0-29" horiz-adv-x="1000" />

<glyph glyph-name="refresh-alt" unicode="&#xe829;" d="M734 71c8 7 21 19 28 27 23 25 51 63 48 67-1 2-40 26-44 28-1 0-6-7-11-15-32-48-79-86-135-111-113-50-247-26-336 59-57 55-91 125-97 204l-1 22 44-62 43-62 24 16 23 16-65 93-64 93-93-65-93-64 16-23 16-23 47 32 46 32 4-32c8-56 25-103 53-148 86-138 255-202 411-156 31 9 52 18 81 34 25 14 33 20 55 38m242 334l-16 23-48-32-47-33-1 16c-3 40-15 85-31 123-12 29-51 84-74 107-96 95-236 131-363 93-44-13-66-24-108-53-41-28-58-45-84-82-25-33-25-28 2-45 13-7 24-13 25-12 1 1 8 11 15 21 24 33 38 47 75 72 36 25 54 34 92 45 46 14 90 16 141 7 63-12 112-37 159-81 23-22 57-69 69-97 16-36 25-79 26-113l1-16-43 62-42 61-24-16-23-16 65-93 64-93 93 64 93 65-16 23" horiz-adv-x="1000" />

<glyph glyph-name="retweet" unicode="&#xe82a;" d="M126 534c-44-51-81-94-80-94 0-2 30-29 35-32 2-1 18 16 53 58l50 60 1-195 1-194 5-12c7-14 21-28 36-35l11-6 216 0 216-1 0 25 0 24-209 0c-230 0-218-1-225 12-2 5-3 29-2 194l0 188 50-60c36-42 51-59 53-58 5 3 35 30 36 32 0 2-162 187-164 187-1 0-38-42-83-93m204 59l0-25 210 0c229 0 217 1 224-12 2-5 3-29 2-194l0-188-50 60c-35 42-51 59-53 58-5-3-35-30-35-31-1-3 161-188 163-188 2 0 164 185 164 188-1 1-31 28-36 31-2 1-17-16-53-58l-50-60-1 195-1 194-4 10c-7 14-15 24-27 31-20 13-12 13-243 13l-210 0 0-24" horiz-adv-x="1000" />

<glyph glyph-name="sc-facebook" unicode="&#xe82b;" d="M567 802c-79-10-134-53-159-123-11-32-14-56-14-120l0-57-61 0-60 0 0-76 0-76 60 0 61 0 0-227 0-228 91 0 91 0 0 228 0 227 67 0c37 0 67 1 67 2 0 1 4 35 8 75 5 40 9 73 9 73 0 1-34 2-75 2l-76 0 0 52c0 71 2 79 26 92 12 6 15 6 69 7l56 1 0 75 0 76-72-1c-40 0-80-1-88-2" horiz-adv-x="1000" />

<glyph glyph-name="sc-github" unicode="&#xe82c;" d="M446 791c-178-22-328-147-380-317-16-52-22-99-20-153 3-83 27-159 72-228 33-52 83-102 135-135 43-28 103-55 118-52 16 3 17 7 18 57l1 44-7-2c-15-3-51-4-64-2-42 8-67 27-86 67-16 33-28 48-49 63-19 14-22 18-17 25 3 3 7 3 20 2 28-2 48-16 71-49 23-32 48-46 83-43 11 1 26 4 34 7 13 5 14 6 16 16 2 14 9 29 19 40l8 9-23 4c-81 15-131 48-158 104-17 33-23 63-23 111 0 28 1 40 4 53 6 21 19 49 31 64l9 12-4 11c-8 23-7 63 3 97l4 14 12 0c24 0 64-15 98-37l14-9 26 5c58 11 122 11 180 0l26-5 22 13c36 21 68 33 91 33l12 0 4-14c10-33 11-74 3-98l-4-11 9-10c11-13 25-41 30-61 12-49 5-124-18-170-27-56-75-87-158-102l-23-4 8-11c17-25 18-32 20-123 1-91 2-94 17-97 16-4 83 27 127 57 157 108 230 303 184 490-18 69-55 137-104 191-100 108-245 162-391 144" horiz-adv-x="1000" />

<glyph glyph-name="sc-google-plus" unicode="&#xe82d;" d="M311 638c-45-5-71-13-106-30-80-40-137-115-155-205-6-28-6-78 0-106 23-118 113-208 231-232 28-5 81-5 111 0 57 11 102 34 140 72 22 22 36 43 50 70 15 33 24 66 28 105 2 23 2 36 0 60l-2 19-137 0-137 0 0-50 0-50 82 0 82 0-3-10c-5-23-20-49-40-68-21-21-48-35-78-41-44-9-82-4-121 15-48 23-81 65-96 119-3 12-4 18-4 44 0 26 1 32 4 44 15 53 48 95 96 119 26 13 41 16 71 17 47 2 77-8 113-36l11-8 39 39 39 38-11 9c-36 30-78 51-120 60-27 6-66 9-87 6m478-205l0-42-41 0-42 0 0-41 0-42 42 0 41 0 0-41 0-41 42 0 41 0 0 41 0 41 41 0 42 0 0 42 0 41-42 0-41 0 0 42 0 41-41 0-42 0 0-41" horiz-adv-x="1000" />

<glyph glyph-name="sc-instagram" unicode="&#xe82e;" d="M316 802c-47-2-74-7-104-18-68-24-120-74-143-138-21-57-23-93-23-295 0-201 3-240 22-294 24-64 74-115 137-138 56-20 93-23 295-23 202 0 239 3 296 23 62 23 113 74 135 137 21 56 24 93 24 295 0 153-3 214-10 249-6 29-20 65-33 86-13 21-40 51-59 65-32 23-81 42-130 49-28 3-353 6-407 2m350-81c85-5 118-15 153-51 48-47 54-84 54-319 0-235-6-272-54-320-34-34-67-46-139-51-54-3-306-3-360 0-72 5-105 17-139 51-48 48-54 85-54 320 0 235 6 272 54 319 34 34 69 47 144 51 62 3 282 3 341 0m60-78c-54-26-38-106 22-106 19 0 32 7 45 22 7 8 9 14 10 29 1 16 0 21-7 32-4 7-12 16-18 19-14 9-37 11-52 4m-270-52c-51-9-98-35-134-74-31-33-48-63-60-108-7-26-7-90 0-116 12-46 29-76 60-109 94-100 247-105 346-10 99 93 103 246 9 345-57 60-139 87-221 72m79-88c59-14 104-58 118-118 14-61-12-130-65-164-29-20-49-26-88-26-29 0-36 1-52 7-52 20-88 60-101 114-26 111 76 214 188 187" horiz-adv-x="1000" />

<glyph glyph-name="sc-odnoklassniki" unicode="&#xe82f;" d="M461 802c-28-5-45-11-68-23-64-33-108-88-125-159-6-23-6-82 0-105 11-46 31-82 64-115 33-33 70-53 115-65 26-6 85-6 110 1 45 12 78 32 110 64 32 32 52 66 64 110 8 27 8 88 0 115-29 105-116 176-224 179-18 1-35 0-46-2m70-114c42-11 78-48 89-89 5-17 5-47 0-63-9-37-37-69-75-85-21-9-60-10-82-3-40 14-73 48-84 88-4 16-4 46 0 63 11 41 47 77 89 89 15 4 48 4 63 0m-261-362c-12-5-28-21-33-32-6-13-6-35 0-48 13-29 74-62 146-80 16-4 31-8 34-8 3 0 6 0 6-1 0-1-37-40-83-87-77-79-83-86-87-98-7-25-3-40 15-58 14-14 25-19 44-18 20 0 27 5 109 88l79 80 79-80c53-53 82-81 88-84 30-13 67 3 78 34 6 17 7 24 1 40-3 10-15 23-87 96-45 47-82 85-82 86 0 1 7 3 17 5 51 10 133 45 155 68 30 29 23 74-13 93-22 11-40 8-74-11-25-14-63-28-98-35-31-7-101-6-133 1-33 7-70 20-91 33-9 6-21 12-25 14-10 5-35 6-45 2" horiz-adv-x="1000" />

<glyph glyph-name="sc-skype" unicode="&#xe830;" d="M268 801c-29-4-52-11-80-25-90-43-149-144-142-243 2-32 10-62 22-89l10-20-3-21c-4-30-3-87 1-120 6-39 18-78 36-115 64-134 179-220 323-241 32-5 88-5 117-1l21 3 21-10c34-16 58-21 103-21 32-1 44 0 63 5 49 13 88 35 122 71 23 24 37 45 50 73 31 67 30 151-3 216-6 12-6 14-4 34 5 36 4 97-2 131-15 86-57 166-120 229-59 59-128 96-211 114-34 7-102 10-142 5l-28-3-22 10c-37 16-91 23-132 18m293-176c79-22 131-61 135-105 3-27-12-45-41-51-24-6-34-1-63 29-37 38-70 50-120 46-27-2-43-8-58-20-13-12-19-23-19-41 0-12 2-15 10-24 5-6 15-14 22-17 7-3 47-14 89-23 42-10 84-20 93-23 54-20 89-55 100-101 5-21 6-59 1-79-12-59-55-99-129-118-24-7-31-7-78-8-40 0-57 1-74 5-68 15-118 46-138 87-8 14-12 39-9 52 5 17 29 34 50 34 17 0 31-8 47-27 40-46 54-57 89-64 50-10 101 4 122 34 7 10 8 14 8 31 0 19-1 21-9 31-4 5-13 13-20 16-7 3-50 15-97 26-90 22-117 31-141 49-34 26-50 59-50 110 0 70 40 121 114 145 35 11 53 13 102 12 33-1 49-2 64-6" horiz-adv-x="1000" />

<glyph glyph-name="sc-pinterest" unicode="&#xe831;" d="M444 801c-193-24-352-170-390-361-16-81-9-170 19-247 39-106 118-196 217-247 16-8 32-16 36-18l6-2 0 58 0 59 30 119 29 120-5 17c-15 52-5 108 24 137 17 17 27 21 51 21 19 0 22 0 32-7 14-10 23-28 24-48 2-20-4-45-21-106-8-27-15-55-15-63-3-27 8-48 31-62 16-9 46-11 71-3 64 19 107 99 107 198 0 41-4 62-18 91-21 43-64 78-113 92-23 6-81 7-107 2-61-12-110-50-137-104-15-32-20-53-20-87 0-37 9-68 28-98l8-13-7-30c-4-16-8-31-9-32-3-4-11-2-27 8-50 33-82 118-74 195 4 38 11 63 27 95 37 77 104 126 197 146 34 7 106 8 136 1 91-20 160-73 194-150 31-66 29-162-3-239-25-61-77-115-131-135-67-26-131-18-170 20-7 7-13 12-13 12-1-1-8-29-17-63-13-54-17-66-30-92-8-17-20-39-26-49l-11-19 12-5c25-8 66-15 103-16 162-6 311 71 400 206 97 149 97 347 0 496-97 146-264 224-438 203" horiz-adv-x="1000" />

<glyph glyph-name="sc-soundcloud" unicode="&#xe832;" d="M604 556c-33-4-67-16-92-32-24-17-48-41-51-53-1-3-4-51-6-105l-5-98 5-58c2-32 5-60 6-62 1-2 3-3 5-4 2-1 91-1 196 0l193 0 15 5c21 8 32 15 48 31 16 16 24 28 31 49 5 14 6 17 6 38 0 22-1 25-6 39-6 18-14 31-27 45-21 23-49 37-82 40l-12 1-5 15c-16 55-53 100-103 126-36 19-78 27-116 23m-216-85c-3-3-5-18-12-99-5-52-9-99-9-104 0-6 4-34 9-64 10-60 10-61 22-61 8 0 12 2 14 8 3 8 18 102 18 115 0 7-3 54-8 106-9 105-8 101-23 102-7 0-9 0-11-3m-83-21c-3-2-5-19-12-88-4-47-8-89-8-94 0-6 4-34 8-64 10-60 10-61 22-61 8 0 12 2 14 8 1 3 6 28 10 55 4 28 8 52 9 54 0 3-4 45-9 95-10 103-9 99-23 99-6 0-9-1-11-4m-165-42c-3-3-5-12-13-67-5-34-10-67-10-73 0-5 4-34 8-63 8-50 9-52 14-57 6-6 13-6 18-1 3 4 5 12 12 58 5 30 9 57 9 62 0 4-5 38-10 74-8 56-10 66-13 68-5 4-10 4-15-1m83-21c-3-3-5-11-13-57-4-29-8-57-8-62 0-6 4-34 9-64 9-59 9-61 20-61 10 0 12 4 21 62 5 30 9 58 8 63 0 5-3 33-8 62-9 58-11 62-21 62-2 0-6-2-8-5m-157-38c-1-1-3-3-5-5-3-7-17-76-15-81 0-2 3-22 7-45 3-23 7-44 8-47 5-9 18-9 22 0 3 6 14 84 14 96 0 6-3 26-7 43-5 26-7 33-10 36-4 4-9 5-14 3" horiz-adv-x="1000" />

<glyph glyph-name="sc-telegram" unicode="&#xe833;" d="M877 735c-31-11-814-323-820-327-14-10-15-29-3-42 6-7 19-11 111-40 58-19 105-34 106-34 1-1 12-36 25-78 62-193 60-189 69-195 9-5 20-6 28-1 3 1 33 28 66 59l61 57 114-83c63-46 118-85 122-87 13-5 30 1 36 14 6 10 163 689 163 700-1 42-40 70-78 57m-4-71c-4-4-109-98-234-209-125-111-230-204-233-208-5-4-7-13-18-77-7-40-13-73-14-73-1-1-14 45-30 101-21 78-28 103-25 105 1 1 128 84 281 185 153 100 278 183 279 183 1 0-2-3-6-7" horiz-adv-x="1000" />

<glyph glyph-name="sc-tumblr" unicode="&#xe834;" d="M421 801c-1-2-4-14-6-26-8-61-36-118-77-159-23-23-46-39-76-53l-23-11 0-57 1-58 46-1 45-1 1-167c1-165 1-168 7-188 22-74 67-127 131-157 49-24 113-33 169-25 42 6 93 25 114 42l8 6-21 65c-18 54-22 64-26 62-16-6-45-13-64-14-41-3-68 10-83 42l-9 18-1 157-1 157 91 0 91 0 0 68 0 67-89 0-90 0 0 119 0 118-67 0c-51 0-69-1-71-4" horiz-adv-x="1000" />

<glyph glyph-name="sc-twitter" unicode="&#xe835;" d="M651 723c-48-6-93-30-124-68-16-18-33-52-39-76-5-18-6-53-2-75l2-14-11 0c-18 0-64 8-96 16-96 25-181 75-255 150l-31 31-8-16c-33-71-10-166 53-216l13-10-8-1c-11-1-37 6-57 15l-16 8 0-9c0-5 1-18 3-29 13-66 61-121 125-143l22-7-11-2c-5-1-23-2-39-2-17 0-30-1-30-2 0-5 12-29 23-44 30-46 81-77 135-83l19-2-20-13c-44-30-103-54-155-63-15-2-41-4-62-4-20 0-36-1-36-1 0-3 40-28 61-39 133-67 311-65 455 5 74 36 135 87 186 153 71 94 108 200 114 325l2 34 8 7c18 13 53 49 68 69 8 11 15 21 15 21-1 1-9-2-18-5-18-8-73-22-82-22-5 0-5 0 2 6 28 20 56 54 68 81l7 15-11-6c-18-10-59-27-84-35l-23-6-17 14c-41 34-95 50-146 43" horiz-adv-x="1000" />

<glyph glyph-name="sc-vimeo" unicode="&#xe836;" d="M782 745c-67-11-117-40-155-89-22-28-50-86-58-116l-1-7 18 7c15 5 25 7 44 7 29 1 41-4 54-21 8-10 9-12 10-36 1-42-11-76-54-147-30-48-44-68-61-85-25-25-43-24-62 4-23 36-41 106-68 277-7 43-15 86-18 96-13 43-35 74-64 89-13 7-17 7-43 7l-30 0-25-13c-35-17-63-39-125-95-28-26-62-57-75-68-13-11-23-22-23-23 0-3 37-54 39-54 1 0 12 6 24 14 36 24 45 28 57 26 21-4 45-39 65-94 4-13 27-92 49-175 22-83 43-158 46-166 25-63 63-111 99-124 13-5 19-6 39-5 80 5 175 78 291 223 88 110 157 224 183 303 15 46 18 68 16 116-1 44-8 72-23 96-17 26-49 46-83 52-17 2-52 3-66 1" horiz-adv-x="1000" />

<glyph glyph-name="sc-vk" unicode="&#xe837;" d="M419 608c-27-2-37-4-51-12-9-6-17-15-17-20 0-1 3-2 6-2 4 0 14-4 22-8 13-6 15-8 18-18 6-17 9-45 9-94 0-65-6-91-22-98-17-9-42 16-83 84-20 31-48 86-59 114-8 20-12 24-23 29-9 4-17 5-83 5-66 0-75-1-82-4-16-8-12-20 34-111 64-128 127-223 188-284 48-48 96-76 159-91 14-4 28-5 66-6 47-1 49-1 59 4 15 8 18 13 21 41 3 34 9 53 20 65 9 9 10 9 20 8 15-2 29-13 63-52 32-36 50-52 71-62l13-6 75 1c83 0 93 1 104 14 21 21 0 55-83 138-58 57-63 64-58 82 3 12 10 23 53 79 62 83 86 124 92 152 3 11 3 15 0 20-7 11-8 12-106 12l-92 0-5-6c-3-2-11-17-18-33-34-81-85-164-114-182-13-8-17-9-23-2-13 14-14 29-12 122 3 84 2 94-10 106-5 4-12 9-17 10-23 7-82 9-135 5" horiz-adv-x="1000" />

<glyph glyph-name="sc-linkedin" unicode="&#xe838;" d="M90 802c-14-5-30-17-37-30l-7-13 0-408 0-409 8-15c6-9 15-17 24-23l14-9 409 0 409 0 13 9c9 5 17 12 22 21l8 14 1 403c1 294 0 406-2 415-5 17-19 33-36 41l-15 7-401-1c-221 0-406-1-410-2m201-133c62-30 62-119 0-149-20-10-38-12-58-6-56 16-80 79-48 126 24 36 67 47 106 29m421-208c51-13 81-46 96-104 4-18 5-40 6-172l1-151-70 0-70 0-1 128c-1 123-1 128-7 145-13 34-31 48-62 48-32 0-50-14-63-48-6-17-6-22-7-145l-1-128-70 0-70 0 0 210 0 210 70 0 71 0 0-24c0-20 0-25 4-25 2 0 5 2 6 5 6 19 54 50 86 56 19 3 60 1 81-5m-388-217l0-210-70 0-70 0 0 210 0 210 70 0 70 0 0-210" horiz-adv-x="1000" />

<glyph glyph-name="sc-youtube" unicode="&#xe839;" d="M328 666c-90-3-153-7-175-11-22-5-41-15-57-30-25-24-39-61-46-125-6-54-6-249 0-304 11-96 37-137 100-153 30-8 112-10 337-11 272 0 350 4 387 21 45 21 67 63 76 146 6 54 6 247 0 301-7 64-21 101-46 125-16 16-35 25-57 30-52 11-317 16-519 11m207-247c64-33 117-61 116-61-2-1-237-122-240-124-4-1-5 6-5 126l0 127 6-4c3-2 58-31 123-64" horiz-adv-x="1000" />

<glyph glyph-name="search" unicode="&#xe83a;" d="M386 804c-52-7-71-12-105-25-119-47-207-154-231-282-6-33-6-98 0-132 29-154 149-273 303-302 35-7 103-6 138 1 55 12 108 35 148 65 12 10 23 17 24 17 1 0 58-56 127-125l125-126 20 20 19 20-125 125c-69 69-125 126-125 127 0 1 7 12 16 24 32 41 57 100 67 154 7 36 6 104-1 138-33 156-149 269-304 297-19 3-82 6-96 4m97-63c62-13 113-40 159-86 46-46 73-96 86-160 8-34 8-93 0-128-13-63-40-113-86-159-47-46-97-74-163-88-29-6-92-6-120 0-66 14-117 42-164 88-45 46-72 96-86 159-8 35-8 94 0 128 14 64 41 114 86 160 54 53 113 81 192 91 19 3 72 0 96-5" horiz-adv-x="1000" />

<glyph glyph-name="share-apple" unicode="&#xe83b;" d="M411 717l-88-88 19-18 18-18 57 56 57 57 0-247 0-246 26 0 27 0 0 246 0 247 56-57 57-56 19 18 18 18-88 88c-48 48-88 88-89 88-1 0-41-40-89-88m-198-190c-23-6-41-21-52-44l-4-11 0-259 0-260 5-13c8-16 23-31 39-39l13-6 286 0 286 0 13 6c16 8 31 23 39 39l6 13 0 260 0 259-5 11c-11 23-29 38-53 44-11 3-29 4-110 4l-96 0 0-27 0-26 96 0c81 0 97-1 103-4 13-7 13 8 13-260 0-206-1-246-3-252-7-16 13-15-289-15-239 0-273 1-278 4-14 7-14-8-14 262 0 269 0 254 14 261 5 3 21 4 102 4l97 0 0 26 0 27-98-1c-79 0-100 0-110-3" horiz-adv-x="1000" />

<glyph glyph-name="spinner-3" unicode="&#xe83c;" d="M481 802c-118-7-230-59-311-144-90-93-136-229-122-357 20-187 153-342 333-389 98-26 192-16 283 29 56 27 115 77 158 129 5 7-1 2-13-12-140-146-315-182-483-99-84 42-151 109-191 193-62 129-51 277 30 398 68 102 179 167 296 173 71 4 131-7 191-35 74-34 139-103 168-180 15-39 21-68 24-124 3-47 5-62 12-78 6-13 19-29 29-34 15-7 34-3 48 11 19 19 24 43 21 93-2 17-5 42-7 55-22 129-100 244-211 312-71 44-160 64-255 59" horiz-adv-x="1000" />

<glyph glyph-name="spinner-2" unicode="&#xe83d;" d="M830 800c-9-2-24-12-35-22-21-19-32-43-32-69 0-50 45-96 96-96 50 0 96 46 96 96 0 26-12 50-33 69-27 25-56 32-92 22m-361-96c-21-6-55-39-61-61-11-38-4-68 25-96 16-16 24-22 41-26 63-15 118 28 118 92 0 66-57 108-123 91m-258-262c-45-15-70-48-70-93 0-55 39-94 94-94 55 0 94 39 94 94 0 38-18 68-52 85-17 9-51 13-66 8m-94-360c-45-12-71-47-71-93 0-55 38-93 93-93 55 0 93 38 93 93 0 38-17 68-50 84-16 9-48 13-65 9" horiz-adv-x="1000" />

<glyph glyph-name="star" unicode="&#xe83e;" d="M483 778c-6-3-8-7-14-26-3-12-25-81-47-152l-41-130-160 0c-159-1-161-1-166-5-12-9-13-25 0-37 3-3 60-46 126-94 66-49 121-89 122-90 1-1-20-68-46-150-51-156-51-157-43-166 10-11 23-13 36-4 5 3 63 44 129 92l119 87 128-89c70-49 130-90 132-91 14-4 32 9 32 23 0 5-86 274-96 299 0 1 57 44 128 96 71 51 130 95 131 97 5 9 0 22-11 29-4 1-42 2-165 3l-159 1-36 112c-20 62-42 129-48 149-14 44-19 50-35 50-6 0-12-2-16-4m54-223c21-65 39-120 41-123 8-10 5-10 142-11l129-1-104-76c-57-42-104-78-106-80-1-3-2-7-2-11 0-3 17-59 39-125 21-65 38-119 38-120-1 0-44 31-96 69-110 81-110 81-120 81-10 0-10 0-120-81-52-38-95-69-95-68-1 1 16 55 37 121 21 65 38 121 38 123 0 2-2 7-4 10-2 4-45 37-106 82l-103 75 130 1c140 1 137 1 142 12 2 3 20 58 42 123 21 65 38 118 39 118 1 0 18-53 39-119" horiz-adv-x="1000" />

<glyph glyph-name="spinner" unicode="&#xe83f;" d="M877 798c-24-13-24-11-24-246 0-236 0-233 25-246 26-13 58-4 70 19 5 10 6 43 6 227 0 236 1 233-25 247-15 8-37 8-52-1m-402-109c-12-9-22-28-22-43 0-17 201-364 221-383 10-9 19-14 27-14 22 0 47 28 47 53 0 19-206 372-224 384-16 11-36 12-49 3m-294-301c-27-16-29-57-3-75 7-5 89-53 184-109 148-85 176-100 190-100 32-1 48 15 48 47 0 11-3 18-13 28-11 10-307 185-360 213-14 7-31 5-46-4m-102-395c-13-3-29-20-32-35-6-31 11-57 41-61 9-1 110-2 224-1 222 1 218 1 230 23 7 13 7 39 0 53-12 22-7 22-239 22-118 1-219 0-224-1" horiz-adv-x="1000" />

<glyph glyph-name="tag" unicode="&#xe840;" d="M580 801c-23-3-52-13-78-26l-24-13-208-207c-238-238-224-221-224-269 0-47-10-35 173-218 183-181 169-171 217-171 50 0 33-14 263 215 110 109 206 206 212 215 16 22 29 52 37 82 7 25 7 26 7 165 0 133-1 141-6 158-9 30-36 56-67 67-11 4-279 5-302 2m233-63c60-1 64-2 74-19 5-8 5-14 5-144 0-149 1-148-17-185-10-19-20-29-211-221-116-117-203-202-208-204-11-5-25-5-35-1-10 3-297 289-306 304-8 14-7 26 3 41 4 5 96 99 205 207 192 191 199 198 219 208 11 6 27 11 34 13 13 3 67 3 237 1m-144-64c-46-9-87-49-99-96-24-92 64-181 156-156 70 18 112 88 95 156-18 67-84 109-152 96m55-70c23-11 35-31 35-57 0-55-63-85-104-49-16 14-23 28-23 49 0 30 17 53 47 62 10 4 33 1 45-5" horiz-adv-x="1000" />

<glyph glyph-name="share-google" unicode="&#xe841;" d="M770 800c-59-12-106-61-116-122-3-15-2-52 1-61 1-3-38-23-168-88l-170-85-15 15c-26 25-68 42-105 42-36 0-79-17-104-41-76-72-58-200 34-245 27-13 36-16 70-16 28 0 33 1 50 8 24 9 43 21 58 36l12 12 169-85 170-84-1-8c-4-16-2-60 3-75 17-52 48-83 101-102 10-4 20-5 44-5 29 0 34 1 51 7 46 18 75 47 92 93 25 71-6 151-73 184-23 11-48 18-70 18-37 0-79-17-105-43l-15-14-170 84-169 85 1 9c3 12 3 49 0 61l-1 9 169 85 170 84 12-12c66-68 184-56 235 24 20 30 29 73 23 108-15 85-98 141-183 122m57-60c32-8 55-32 63-63 5-19 5-29 0-48-7-28-24-48-51-60-17-8-55-8-72 0-34 15-55 48-55 85 0 27 17 59 39 73 23 16 49 20 76 13m-606-303c20-6 39-19 50-35 9-14 17-37 17-53 0-24-15-56-33-70-19-15-32-19-58-19-27 0-40 4-58 19-20 15-33 45-33 72 0 27 17 58 38 73 24 15 50 20 77 13m606-304c21-5 40-18 51-34 9-14 16-37 16-53 0-25-14-56-33-71-18-14-31-18-58-18-26 0-40 4-58 18-19 16-33 46-33 73 0 27 17 58 39 73 23 15 49 19 76 12" horiz-adv-x="1000" />

<glyph glyph-name="trash" unicode="&#xe842;" d="M420 801c-25-7-45-24-55-48-4-8-6-18-6-37l-2-25-113 0-113 0 0-29 0-28 29 0 30 0 0-6c0-4 11-153 25-332 22-291 25-327 29-339 10-27 33-49 60-57 13-4 25-5 196-5 171 0 183 1 196 5 27 8 50 30 60 57 4 12 8 48 29 340 14 179 25 329 25 332 0 5 1 5 30 5l29 0 0 28 0 29-113 0-113 0-1 25c-1 19-3 29-7 37-11 25-30 41-56 48-19 5-140 5-159 0m151-57c10-5 14-15 14-35l0-18-85 0-85 0 0 18c0 20 4 30 13 35 10 5 133 5 143 0m181-125c-1-8-12-155-25-328-25-340-23-321-38-333-7-5-8-5-189-5-180 0-182 0-188 5-16 12-13-12-39 332-13 173-24 321-25 329l-2 15 254 0 253 0-1-15m-394-326l0-227 28 0 29 0 0 227 0 227-29 0-28 0 0-227m114 0l0-227 28 0 28 0 0 227 0 227-28 0-28 0 0-227m113 0l0-227 29 0 28 0 0 227 0 227-28 0-29 0 0-227" horiz-adv-x="1000" />

<glyph glyph-name="trophy" unicode="&#xe843;" d="M206 724l0-26-80 0-80 0 0-26c0-104 31-192 94-261 42-46 105-86 167-107 24-8 25-8 44-26 10-10 36-32 57-49 41-33 49-41 58-59 6-13 6-13 7-63l1-51-9-1c-18-3-41-11-54-17-15-7-35-24-37-31-1-4-5-4-38-5-34-1-39-1-47-6-16-8-30-29-30-43 0-4 20-4 241-4 221 0 241 0 241 4 0 14-14 35-30 43-8 5-13 5-47 6-20 0-37 2-37 3 0 3-16 20-26 27-12 8-35 17-56 21-9 2-17 3-17 3-1 0-1 20-1 45 0 63 3 74 30 100 7 7 23 19 34 28 26 19 45 35 66 54 14 13 17 15 37 22 61 20 125 61 166 106 63 69 95 157 95 261l0 26-81 0-80 0 0 26 0 27-294 0-294 0 0-27m537-39c0-41-9-121-19-165-26-114-73-184-168-253-13-9-31-23-40-31l-16-16-15 16c-8 8-31 27-50 42-59 46-88 80-114 130-32 62-51 140-56 233-1 12-2 30-2 39l-2 18 241 0 241 0 0-13m-534-57c9-95 26-168 55-231 5-10 9-19 8-19-1-2-39 22-56 36-63 49-103 120-114 203-2 13-3 25-3 25 0 1 24 2 54 2l55 0 1-16m692 14c0-11-8-54-12-70-22-80-74-146-149-188l-13-8 9 20c19 41 36 97 45 149 4 23 11 86 11 96 0 3 7 3 55 3 30 0 54-1 54-2" horiz-adv-x="1000" />

<glyph glyph-name="undo" unicode="&#xe844;" d="M460 803c-99-12-183-49-256-113-22-20-56-60-74-88l-13-20-1 76-1 77-35 0-34 0 0-140 0-140 140 0 140 0 0 35 0 35-79 0c-43 0-79 1-79 2 0 1 6 13 14 26 55 92 143 154 248 175 38 8 109 7 149-2 77-16 137-49 193-105 56-56 89-116 106-193 9-43 9-114 0-156-17-78-50-138-106-194-71-72-156-109-258-113-145-5-284 74-351 200l-13 24-29-14c-17-7-31-14-32-14-2-3 24-51 42-76 24-33 72-82 107-107 50-35 111-61 176-75 25-6 39-7 87-7 64 0 92 5 148 24 153 51 270 187 300 349 8 44 7 127-2 168-40 189-180 327-369 361-23 4-99 7-118 5" horiz-adv-x="1000" />

<glyph glyph-name="user" unicode="&#xe845;" d="M455 802c-155-15-295-112-363-252-16-33-30-73-37-108-45-218 75-438 283-517 50-19 92-27 146-29 56-2 104 5 158 23 187 61 313 236 313 431 0 52-7 95-24 144-22 66-55 121-103 171-97 101-233 151-373 137m84-53c12-1 32-4 44-7 80-16 163-64 218-127 130-149 134-367 9-520-6-8-13-15-14-15-1 0-7 4-13 8-13 11-51 29-93 45-43 16-65 28-76 40l-9 10 0 25c0 23 0 26 4 28 6 4 24 29 31 42 3 7 6 18 7 24 2 9 6 14 15 24 16 17 22 33 22 57 0 15-1 22-5 29l-4 10 5 25c5 21 5 31 6 68 0 42 0 44-6 61-16 44-41 74-75 86-7 3-15 7-19 10-20 17-46 24-86 25-61 0-105-16-141-52-19-20-30-39-39-69-6-18-6-22-6-58 0-27 1-44 5-63l4-25-6-14c-8-21-8-44 1-64 4-8 12-20 18-26 5-7 10-14 10-16 0-8 12-37 19-49 5-6 13-16 18-21l10-11 0-24c0-23-1-24-7-33-12-16-29-27-95-58-26-12-54-27-63-32-9-6-16-11-17-11 0 0-8 9-16 19-129 152-127 376 4 525 57 64 136 111 218 127 42 9 84 11 122 7m-16-107c16-4 23-8 26-15 7-15 11-18 22-18 6 0 14-2 18-3 17-10 34-38 38-65 4-25-2-84-12-115l-4-14 6-7c9-11 13-19 11-27-3-13-8-19-20-25l-12-6-1-20c0-14-2-24-5-31-6-12-20-28-32-35l-7-5 0-44c1-39 2-45 6-54 14-30 42-49 107-73 17-6 39-15 49-18 19-8 43-21 43-25 0-6-52-40-84-55-132-61-285-48-404 35-9 7-15 13-14 14 3 3 37 19 62 29 70 29 108 56 123 88 6 13 6 15 7 58l1 45-9 6c-21 13-39 42-39 65l0 13-14 13c-24 21-27 35-11 53 6 8 8 11 7 16-1 4-4 22-7 41-8 43-9 80-2 101 17 51 61 79 125 80 8 0 19-1 26-2" horiz-adv-x="1000" />

<glyph glyph-name="unlock" unicode="&#xe846;" d="M462 802c-41-5-92-26-124-50-24-18-57-54-72-78-13-23-27-57-33-83-3-13-5-35-5-86l-2-69-11-6c-16-8-33-25-41-42l-7-14 0-207 0-206 7-14c9-19 26-36 45-45l14-7 267 0 267 0 14 7c19 9 36 26 45 45l7 14 0 206 0 207-6 12c-8 17-19 30-33 39-25 16-19 16-275 16l-232 0 1 64c1 60 2 65 8 86 27 88 100 147 191 152 101 7 196-63 217-158 2-10 5-21 5-23 1-3 13-3 50 2l12 1-2 11c-5 35-25 83-45 112-61 84-159 128-262 114m296-426c16-8 15 0 15-207 0-158 0-190-3-198-8-17 8-16-270-16-275 0-261-1-269 15-6 11-6 384 0 395 8 16-7 15 269 15 219 0 252 0 258-4m-276-60c-14-3-34-22-39-36-8-26-3-48 18-67l14-13-9-55c-5-30-10-58-10-62l-2-7 46 0 46 0-1 7c-1 4-6 32-11 62l-9 55 14 13c29 26 29 64 1 89-17 16-35 20-58 14" horiz-adv-x="1000" />
</font>
</defs>
</svg>
